<svg xmlns="http://www.w3.org/2000/svg" xml:space="preserve" width="512" height="512" style="enable-background:new 0 0 512 512" viewBox="0 0 682.667 682.667"><defs><clipPath id="a" clipPathUnits="userSpaceOnUse"><path d="M0 512h512V0H0Z" data-original="#000000"/></clipPath></defs><g fill="none" stroke="#0f172a" stroke-linecap="round" stroke-linejoin="round" stroke-miterlimit="10" stroke-width="30" clip-path="url(#a)" transform="matrix(1.33333 0 0 -1.33333 0 682.667)"><path d="m0 0-12.623-87.902c-4.247-36.328-35.018-63.719-71.583-63.719h-254.756c-36.565 0-67.336 27.391-71.583 63.719L-423.168 0" data-original="#000000" style="stroke-width:30;stroke-linecap:round;stroke-linejoin:round;stroke-miterlimit:10;stroke-dasharray:none;stroke-opacity:1" transform="translate(467.584 300.813)"/><path d="M0 0h-147.383c-13.476 0-24.4 10.925-24.4 24.4v11.388c0 13.476 10.924 24.4 24.4 24.4H-1.152" data-original="#000000" style="stroke-width:30;stroke-linecap:round;stroke-linejoin:round;stroke-miterlimit:10;stroke-dasharray:none;stroke-opacity:1" transform="translate(186.783 300.813)"/><path d="M0 0h136.5c13.477 0 24.4-10.925 24.4-24.4v-11.388c0-13.476-10.923-24.4-24.4-24.4H-1.907" data-original="#000000" style="stroke-width:30;stroke-linecap:round;stroke-linejoin:round;stroke-miterlimit:10;stroke-dasharray:none;stroke-opacity:1" transform="translate(336.1 361.001)"/><path d="M0 0h-129.029v172.078c0 8.026 6.505 14.53 14.529 14.53h99.971c8.024 0 14.529-6.504 14.529-14.53Z" data-original="#000000" style="stroke-width:30;stroke-linecap:round;stroke-linejoin:round;stroke-miterlimit:10;stroke-dasharray:none;stroke-opacity:1" transform="translate(320.515 204.807)"/><path d="M0 0v-28.606" data-original="#000000" style="stroke-width:30;stroke-linecap:round;stroke-linejoin:round;stroke-miterlimit:10;stroke-dasharray:none;stroke-opacity:1" transform="translate(120.62 149.191)"/><path d="M0 0v-28.606" data-original="#000000" style="stroke-width:30;stroke-linecap:round;stroke-linejoin:round;stroke-miterlimit:10;stroke-dasharray:none;stroke-opacity:1" transform="translate(391.38 149.191)"/><path d="M0 0h110.311" data-original="#000000" style="stroke-width:30;stroke-linecap:round;stroke-linejoin:round;stroke-miterlimit:10;stroke-dasharray:none;stroke-opacity:1" transform="translate(200.845 252.314)"/></g></svg>