<svg xmlns="http://www.w3.org/2000/svg" xml:space="preserve" width="512" height="512" style="enable-background:new 0 0 512 512" viewBox="0 0 682.667 682.667"><defs><clipPath id="a" clipPathUnits="userSpaceOnUse"><path d="M0 512h512V0H0Z" data-original="#000000"/></clipPath></defs><g fill="none" stroke="#0f172a" stroke-linecap="round" stroke-linejoin="round" stroke-miterlimit="10" stroke-width="30" clip-path="url(#a)" transform="matrix(1.33333 0 0 -1.33333 0 682.667)"><path d="M0 0v113.007c0 19.757 16.019 35.773 35.779 35.773h313.805c19.76 0 35.779-16.016 35.779-35.773V0" data-original="#000000" style="stroke-width:30;stroke-linecap:round;stroke-linejoin:round;stroke-miterlimit:10;stroke-dasharray:none;stroke-opacity:1" transform="translate(63.318 301.336)"/><path d="M0 0h-444.825c-10.266 0-18.588 8.322-18.588 18.587V132.57c0 10.265 8.322 18.587 18.588 18.587H0c10.266 0 18.587-8.322 18.587-18.587V18.587C18.587 8.322 10.266 0 0 0Z" data-original="#000000" style="stroke-width:30;stroke-linecap:round;stroke-linejoin:round;stroke-miterlimit:10;stroke-dasharray:none;stroke-opacity:1" transform="translate(478.413 90.31)"/><path d="M0 0v23.613c0 20.023-16.235 36.256-36.262 36.256h-359.494c-20.027 0-36.262-16.233-36.262-36.256V0" data-original="#000000" style="stroke-width:30;stroke-linecap:round;stroke-linejoin:round;stroke-miterlimit:10;stroke-dasharray:none;stroke-opacity:1" transform="translate(472.009 241.467)"/><path d="M0 0c10.23 0 18.523 8.292 18.523 18.521v22.828c0 10.228-8.293 18.52-18.523 18.52h-80.548c-10.231 0-18.524-8.292-18.524-18.52V18.521C-99.072 8.292-90.779 0-80.548 0" data-original="#000000" style="stroke-width:30;stroke-linecap:round;stroke-linejoin:round;stroke-miterlimit:10;stroke-dasharray:none;stroke-opacity:1" transform="translate(212.29 301.336)"/><path d="M0 0c10.23 0 18.523 8.292 18.523 18.521v22.828c0 10.228-8.293 18.52-18.523 18.52h-80.548c-10.23 0-18.524-8.292-18.524-18.52V18.521C-99.072 8.292-90.778 0-80.548 0" data-original="#000000" style="stroke-width:30;stroke-linecap:round;stroke-linejoin:round;stroke-miterlimit:10;stroke-dasharray:none;stroke-opacity:1" transform="translate(380.26 301.336)"/><path d="M0 0v-28.426" data-original="#000000" style="stroke-width:30;stroke-linecap:round;stroke-linejoin:round;stroke-miterlimit:10;stroke-dasharray:none;stroke-opacity:1" transform="translate(46.925 90.31)"/><path d="M0 0v-28.426" data-original="#000000" style="stroke-width:30;stroke-linecap:round;stroke-linejoin:round;stroke-miterlimit:10;stroke-dasharray:none;stroke-opacity:1" transform="translate(465.075 90.31)"/></g></svg>